<svg version="1.1" id="svg1253" width="1200" height="800" xmlns="http://www.w3.org/2000/svg" viewBox="-17.25 -28.75 149.5 172.5"><defs id="defs1235"><style id="style1233">.cls-4{fill-rule:evenodd;fill:#e60a14}</style></defs><path d="M0 0v115h115V0z" fill="#fff" id="path1237"/><path d="M1 1h113v113H1z" fill="#0050aa" id="path1239"/><path d="M57.5 4A53.51 53.51 0 10111 57.52 53.53 53.53 0 0057.5 4z" fill="#e60a14" id="path1241"/><path d="M57.5 7.38a50.12 50.12 0 1050.12 50.14A50.14 50.14 0 0057.5 7.38z" id="path1243" fill-rule="evenodd" fill="#fff000"/><path class="cls-4" d="M54.39 58.91l-8.85-8.85-10.2 10.22v3.43l2.57-2.58 7.12 7.14-2.63 2.62 1.71 1.72 14.24-14.26v-3.42z" id="path1245"/><path d="M13.08 48.2h15.76v3.4h-2.63v11l9.13-5.08v9.31H13.08v-3.42h2.64V51.6h-2.64zm66.45 0v3.4h2.64v11.81h-2.64v3.42h22.28v-9.31l-9.14 5.08v-11h2.64v-3.4z" id="path1247" fill-rule="evenodd" fill="#0050aa"/><path class="cls-4" d="M44.24 37.61a5.61 5.61 0 11-5.61 5.59 5.59 5.59 0 015.61-5.59z" id="path1249"/><path d="M55.75 48.2v3.4h2.63v11.81h-2.66v3.42h15c11.14 0 11.28-18.63.03-18.63h-15zM67.89 54h.63c3.29 0 3.29 7 .12 7h-.75z" fill="#0050aa" id="path1251"/></svg>